<?xml version="1.0" standalone="no"?>
<!DOCTYPE svg PUBLIC "-//W3C//DTD SVG 20010904//EN"
 "http://www.w3.org/TR/2001/REC-SVG-20010904/DTD/svg10.dtd">
<svg version="1.0" xmlns="http://www.w3.org/2000/svg"
 width="146.000000pt" height="146.000000pt" viewBox="0 0 146.000000 146.000000"
 preserveAspectRatio="xMidYMid meet">
<metadata>
Created by potrace 1.11, written by Peter Selinger 2001-2013
</metadata>
<g transform="translate(0.000000,146.000000) scale(0.100000,-0.100000)"
fill="#000000" stroke="none">
<path d="M608 1440 c-283 -48 -519 -269 -583 -546 -79 -337 90 -682 403 -825
109 -49 183 -64 319 -62 304 4 568 201 669 498 24 72 27 95 28 220 0 126 -3
148 -27 220 -115 344 -459 554 -809 495z m207 -184 c36 -65 99 -225 92 -233
-4 -3 -205 -6 -267 -3 -17 0 -32 12 -48 37 -23 35 -23 38 -8 77 9 23 34 74 56
114 l41 72 49 0 49 0 36 -64z m-339 -53 c-28 -66 -39 -81 -71 -98 -21 -11 -47
-35 -59 -52 -20 -31 -25 -33 -79 -33 l-58 0 18 31 c30 52 136 152 204 192 35
20 67 37 71 37 4 0 -8 -35 -26 -77z m648 -35 c59 -52 122 -135 112 -146 -4 -3
-34 -5 -69 -4 -34 0 -76 1 -92 1 -30 1 -32 4 -53 77 -19 63 -48 136 -70 178
-11 21 121 -60 172 -106z m-767 -300 c19 -21 21 -36 21 -165 l1 -141 -110 0
c-110 0 -110 0 -121 27 -13 32 -16 190 -5 254 l8 47 93 0 c83 0 95 -2 113 -22z
m587 -15 c3 -21 6 -75 6 -120 l0 -82 -36 -17 c-20 -9 -44 -29 -55 -43 l-20
-27 -163 -2 -163 -1 -7 52 c-7 65 -8 155 0 184 3 12 16 24 29 27 13 3 34 19
47 35 l23 30 166 0 166 1 7 -37z m363 10 c10 -36 10 -240 1 -275 -8 -26 -9
-26 -98 -26 -89 0 -90 0 -112 31 -20 27 -22 44 -24 164 l-2 133 114 0 114 0 7
-27z m-888 -471 c7 -26 27 -84 45 -130 18 -45 30 -82 27 -82 -19 0 -132 77
-174 118 -45 43 -107 123 -107 136 0 3 45 6 99 6 l99 0 11 -48z m442 7 l29
-36 -58 -114 -57 -114 -52 -3 -51 -3 -40 73 c-34 63 -92 205 -92 226 0 4 66 7
146 7 l146 0 29 -36z m370 9 c-37 -60 -93 -119 -155 -163 -60 -43 -143 -85
-133 -68 10 18 55 119 61 141 4 12 24 31 44 41 20 11 45 32 56 48 17 26 23 29
82 29 l64 0 -19 -28z"/>
</g>
</svg>
